<svg xmlns="http://www.w3.org/2000/svg" width="30" height="30" viewBox="0 0 30 30">
  <g id="cart" transform="translate(-67 -64)">
    <rect id="Rectangle_379" data-name="Rectangle 379" width="30" height="30" rx="15" transform="translate(67 64)" fill="#f1f2f3"/>
    <g id="cart-icon" transform="translate(-899.941 -211.033)">
      <path id="Path_1575" data-name="Path 1575" d="M988,300.6a.9.9,0,1,0,.835-.558A.9.9,0,0,0,988,300.6Z" transform="translate(-4.502 -6.4)" fill="#1db854"/>
      <path id="Path_1577" data-name="Path 1577" d="M988,300.6a.9.9,0,1,0,.835-.558A.9.9,0,0,0,988,300.6Z" transform="translate(-8.502 -6.4)" fill="#1db854"/>
      <g id="Path_1576" data-name="Path 1576" transform="translate(0 0)" fill="none">
        <path d="M986.108,291.454l1.795-4.788a.6.6,0,0,0-.555-.808H978.6l-.281-1.348a.6.6,0,0,0-.584-.476h-1.2a.6.6,0,0,0,0,1.2h.721l1.693,7.933a.605.605,0,0,0,.591.476h6.276a.6.6,0,0,0,0-1.2h-5.765l-.13-.6h5.628A.6.6,0,0,0,986.108,291.454Z" stroke="none"/>
        <path d="M 985.269287109375 290.8429565429688 L 986.7628784179688 286.8575439453125 L 978.6296997070312 286.8575439453125 L 979.4802856445312 290.8429565429688 L 985.269287109375 290.8429565429688 M 985.8203125 293.6387329101562 L 979.5438842773438 293.6387329101562 C 979.259521484375 293.6387329101562 979.0140991210938 293.4407348632812 978.9529418945312 293.1629333496094 L 977.259765625 285.22998046875 L 976.5391845703125 285.22998046875 C 976.2086181640625 285.22998046875 975.9410400390625 284.9623718261719 975.9410400390625 284.6317749023438 C 975.9410400390625 284.3012084960938 976.2086181640625 284.0330200195312 976.5391845703125 284.0330200195312 L 977.7349853515625 284.0330200195312 C 978.017578125 284.0342102050781 978.2611694335938 284.232177734375 978.3187255859375 284.5093994140625 L 978.6001586914062 285.8575439453125 L 987.347900390625 285.8575439453125 C 987.5429077148438 285.8593444824219 987.7246704101562 285.9559326171875 987.835693359375 286.1167602539062 C 987.9461059570312 286.2775268554688 987.9712524414062 286.4821166992188 987.9028930664062 286.6651306152344 L 986.1083374023438 291.4535827636719 C 986.0219116210938 291.685791015625 985.8011474609375 291.840576171875 985.553955078125 291.8429565429688 L 979.9260864257812 291.8429565429688 L 980.0557250976562 292.4417724609375 L 985.8203125 292.4417724609375 C 986.033935546875 292.4417724609375 986.2313232421875 292.5557556152344 986.338134765625 292.7405395507812 C 986.4448852539062 292.9259643554688 986.4448852539062 293.1539306640625 986.338134765625 293.33935546875 C 986.2313232421875 293.5247192382812 986.033935546875 293.6387329101562 985.8203125 293.6387329101562 Z" stroke="none" fill="#1db854"/>
      </g>
    </g>
    <g id="amount">
      <circle id="Ellipse_39" data-name="Ellipse 39" cx="4.5" cy="4.5" r="4.5" transform="translate(83 70)" fill="#ff3131"/>
      <text id="_3" data-name="3" transform="translate(86 77)" fill="#fff" font-size="6" font-family="Roboto-Regular, Roboto"><tspan x="0" y="0">3</tspan></text>
    </g>
  </g>
</svg>
