<svg xmlns="http://www.w3.org/2000/svg" width="15" height="13" viewBox="0 0 15 13">
  <path id="hide" d="M794.389,38.674a3.034,3.034,0,0,1,2.158.9,3.106,3.106,0,0,1,.894,2.183,3.358,3.358,0,0,1-.019.34l1.866,1.891a.525.525,0,0,0,.726.023,13.673,13.673,0,0,0,1.765-1.925.543.543,0,0,0,0-.655c-2.052-2.7-4.611-4.3-7.388-4.3q-.312,0-.622.029a.538.538,0,0,0-.328.914l.615.62a3.209,3.209,0,0,1,.336-.019Zm-6.268-2.161,1.957,1.98A12.883,12.883,0,0,0,787,41.434a.543.543,0,0,0,0,.653c2.052,2.7,4.612,4.306,7.39,4.306a7.4,7.4,0,0,0,2.9-.606l2.294,2.32a.526.526,0,0,0,.752,0l.326-.334a.541.541,0,0,0,0-.756L789.2,35.422a.526.526,0,0,0-.75,0l-.328.332A.541.541,0,0,0,788.12,36.513Zm3.216,5.249a3.064,3.064,0,0,1,.427-1.563l1.145,1.158a1.517,1.517,0,0,0-.057.386,1.535,1.535,0,0,0,1.526,1.544,1.436,1.436,0,0,0,.381-.058l.6.6.561.571a3.022,3.022,0,0,1-3.046,0,3.094,3.094,0,0,1-1.532-2.663Zm0,0" transform="translate(-786.888 -35.265)" fill="#8e8e93"/>
</svg>
