<svg xmlns="http://www.w3.org/2000/svg" width="25" height="25" viewBox="0 0 25 25">
  <g id="icons8-facebook" transform="translate(-5 -5)">
    <path id="Path_1" d="M17.5,5A12.5,12.5,0,1,0,30,17.5,12.5,12.5,0,0,0,17.5,5Z" fill="#006dea"/>
    <path id="Path_2" d="M22.854,23.069h3.11l.488-3.159h-3.6V18.183c0-1.312.429-2.476,1.656-2.476h1.973V12.95a16.756,16.756,0,0,0-2.465-.149c-2.892,0-4.588,1.527-4.588,5.007v2.1H16.457v3.159H19.43v8.683a10.9,10.9,0,0,0,3.424.026Z" transform="translate(-3.711 -1.901)" fill="#fff"/>
  </g>
</svg>
