<svg id="MasterCard" xmlns="http://www.w3.org/2000/svg" width="22.988" height="14.487" viewBox="0 0 22.988 14.487">
  <path id="path" d="M470.558,92.645h6.2v11.321h-6.2Z" transform="translate(-462.187 -90.997)" fill="#ff5f00"/>
  <path id="path-2" data-name="path" d="M8.762,9.748a7.2,7.2,0,0,1,2.733-5.682,7.1,7.1,0,0,0-4.381-1.56A7.2,7.2,0,0,0,0,9.748a7.136,7.136,0,0,0,7.113,7.2,6.852,6.852,0,0,0,4.381-1.56,7.179,7.179,0,0,1-2.733-5.64Zm0,0" transform="translate(0 -2.461)" fill="#eb001b"/>
  <path id="path-3" data-name="path" d="M657.593,7.287a7.136,7.136,0,0,1-7.113,7.2,6.852,6.852,0,0,1-4.381-1.56,7.275,7.275,0,0,0,0-11.365A7.1,7.1,0,0,1,650.48,0,7.267,7.267,0,0,1,657.593,7.287Zm-.694,4.467v-.217h.087v-.043h-.217v.043h.087v.217Zm.477,0v-.26h-.087l-.087.217-.086-.217h-.087v.26h.043v-.217l.087.174h.043l.087-.174v.217Zm0,0" transform="translate(-634.605)" fill="#f79e1b"/>
</svg>
