<svg xmlns="http://www.w3.org/2000/svg" width="10" height="10" viewBox="0 0 10 10">
  <g id="Path_1544" data-name="Path 1544" transform="translate(-151.88 -826.258)" fill="none">
    <path d="M161.832,829.967a.91.91,0,0,0-.725-.614l-2.375-.364-1.031-2.206a.9.9,0,0,0-1.641,0l-1.032,2.206-2.375.364a.907.907,0,0,0-.725.614.926.926,0,0,0,.214.941l1.743,1.793-.4,2.485a.933.933,0,0,0,.377.905.909.909,0,0,0,.955.053L156.881,835l2.069,1.148a.9.9,0,0,0,.956-.054.932.932,0,0,0,.375-.9l-.4-2.485,1.743-1.793a.927.927,0,0,0,.213-.942Z" stroke="none"/>
    <path d="M 156.8805084228516 827.3899536132812 L 155.7077941894531 829.8967895507812 L 152.9624633789062 830.3179321289062 L 154.9531402587891 832.3656005859375 L 154.4956512451172 835.1771240234375 L 156.8804168701172 833.8536376953125 L 159.2652740478516 835.1765747070312 L 158.8081512451172 832.3658447265625 L 160.799560546875 830.3175659179688 L 158.0528259277344 829.8966674804688 L 156.8805084228516 827.3899536132812 M 156.8801116943359 826.2579956054688 C 157.2296447753906 826.2579956054688 157.5517730712891 826.4642944335938 157.700927734375 826.7836303710938 L 158.7323455810547 828.9891357421875 L 161.1074066162109 829.35302734375 C 161.4441375732422 829.40478515625 161.7217254638672 829.6400756835938 161.8319244384766 829.9669189453125 C 161.9425811767578 830.299560546875 161.8606262207031 830.6602783203125 161.6193542480469 830.9088745117188 L 159.8759765625 832.7020874023438 L 160.2801055908203 835.1870727539062 C 160.3368072509766 835.533447265625 160.1896514892578 835.888427734375 159.9051055908203 836.0913696289062 C 159.7496490478516 836.2007446289062 159.5699005126953 836.2579956054688 159.38427734375 836.2579956054688 C 159.2336120605469 836.2579956054688 159.0834197998047 836.2188720703125 158.9495391845703 836.14501953125 L 156.8805236816406 834.9972534179688 L 154.8128662109375 836.144775390625 C 154.5117645263672 836.3102416992188 154.1370544433594 836.2887573242188 153.8574981689453 836.0921020507812 C 153.5715942382812 835.8882446289062 153.4242553710938 835.5330200195312 153.48095703125 835.1866455078125 L 153.8852844238281 832.7017822265625 L 152.1421203613281 830.90869140625 C 151.9004364013672 830.6602783203125 151.8184814453125 830.2997436523438 151.928466796875 829.9679565429688 C 152.0386657714844 829.6393432617188 152.3164978027344 829.4043579101562 152.6533966064453 829.3536376953125 L 155.0282897949219 828.9893188476562 L 156.0601348876953 826.7836303710938 C 156.209716796875 826.4642944335938 156.5314025878906 826.2579956054688 156.8801116943359 826.2579956054688 Z" stroke="none" fill="#8e8e93"/>
  </g>
</svg>
